####
#
# OBJ File Generated by Meshlab
#
####
# Object bear_full2.obj
#
# Vertices: 866394
# Faces: 288798
#
####
vn 0.841641 -0.202890 -0.444386
v 4.924112 6.185510 -0.883101
vn 0.497325 -0.119888 -0.262588
v 4.919205 6.354797 -0.969684
vn 1.378105 -0.332213 -0.727639
v 4.965492 6.272013 -0.844224

vn -1.345425 -4.896516 -1.808985
v 0.296502 -0.907931 0.450151 0.752941 0.752941 0.752941
vn -2.353551 -5.669126 -0.381383
v 0.315114 -0.913622 0.435867 0.752941 0.752941 0.752941
vn -1.345425 -4.896516 -1.808985
v 0.296502 -0.907931 0.450151 0.752941 0.752941 0.752941
vn -2.353551 -5.669126 -0.381383
v 0.315114 -0.913622 0.435867 0.752941 0.752941 0.752941


f 1//1 2//2 3//3
f 4//4 5//5 6//6
f 7//26 8//8 9//9
f 10//10 777777711//11 12//12
f 013//13 14//69 15//15


# End of File